<svg xmlns="http://www.w3.org/2000/svg" xmlns:xlink="http://www.w3.org/1999/xlink" version="1.1" id="Layer_1" x="0" y="0" viewBox="0 0 570.5 166.3" xml:space="preserve" enable-background="new 0 0 570.5 166.3">
  <style type="text/css">
    
	.st0 {display: none;}
	.st1 {fill: none;}
	.logo--shape {fill: #fff;}

  </style>
  <rect y="0.3" class="st0" width="570.5" height="166"/>
  <polygon class="st1" points="516.6 59.8 514.5 62.3 516.6 64.9 518.6 62.3 518.8 62.6 520.9 65.1 520.9 65.1 521.1 65.3 521.3 65.1 523.4 67.6 521.3 65.1 521.1 64.9 519 62.3 518.8 62.1 519.8 60.9 518.8 62.1 518.6 62.3 "/>
  <polygon class="st1" points="523.2 62.3 521.1 64.9 523.2 62.3 523.4 62.6 523.6 62.3 525.7 59.8 526.6 60.9 525.7 59.8 525.9 59.5 525.7 59.3 525.7 59.3 523.6 56.8 523.4 56.5 523.2 56.8 521.1 59.3 521.1 59.3 520.9 59.5 520.9 59.5 520.9 59.5 521.1 59.8 519 62.3 521.1 59.8 "/>
  <polygon class="st1" points="507.4 59.8 509.5 62.3 507.4 64.9 509.5 62.3 "/>
  <polygon class="st1" points="514.1 56.8 514.3 57 514.3 57 516.4 59.5 516.4 59.5 516.6 59.8 516.8 59.5 518.8 62.1 516.8 59.5 516.6 59.3 516.6 59.3 514.5 56.8 514.3 56.5 514.6 56.1 514.3 56.5 514.1 56.8 512 54.2 512.2 54 512.2 54 512.2 54 512 53.8 513.1 52.4 512 53.8 509.9 51.2 509.9 51.2 509.7 51 509.5 51.2 509.7 51.5 511.8 54 509.7 56.5 511.8 54 512 54.2 509.9 56.8 512 59.3 "/>
  <polygon class="st1" points="521.1 65.3 523.2 67.9 521.1 70.4 519 67.9 518.8 67.6 516.8 65.1 516.6 64.9 516.4 65.1 516.4 65.1 514.3 67.6 514.1 67.9 514.1 67.9 514.1 67.9 514.3 68.1 514.3 68.1 516.4 70.6 514.3 73.2 516.4 70.6 516.6 70.9 516.8 70.6 517.9 72.1 516.8 70.6 518.8 68.1 519 67.9 521.1 70.4 523.2 67.9 "/>
  <polygon class="st1" points="520.9 70.6 518.8 73.2 518.8 73.2 518.6 73.4 518.8 73.7 519 73.4 521.1 70.9 521.3 70.6 521.1 70.4 "/>
  <polygon class="st1" points="522.5 72.1 521.3 70.6 523.4 68.1 521.3 70.6 "/>
  <polygon class="st1" points="512 65.3 512.2 65.1 514.3 62.6 514.5 62.3 514.3 62.1 512.2 59.5 513.3 58.2 512.2 59.5 512 59.3 511.8 59.5 510.7 58.2 511.8 59.5 509.7 62.1 509.5 62.3 509.7 62.6 511.8 65.1 512 65.3 512.7 66.2 "/>
  <polygon class="st1" points="516.6 76 514.5 73.4 516.6 70.9 514.5 73.4 "/>
  <polygon class="st1" points="523.4 68.1 523.6 67.9 523.4 67.6 523.2 67.9 "/>
  <polygon class="st1" points="528 73.2 527.8 73.4 525.7 70.9 525.7 70.9 527.8 73.4 525.7 76 527.8 73.4 528 73.7 528.2 73.4 528 73.2 530 70.6 528 68.1 525.9 70.6 "/>
  <polygon class="st1" points="523.1 79.1 523.2 79 521.1 76.4 523.2 79 "/>
  <polygon class="st1" points="523.4 73.2 523.4 73.2 523.2 73.4 523.2 73.4 521.1 76 520.9 76.2 521.1 76.4 521.3 76.2 523.4 73.7 523.6 73.4 "/>
  <polygon class="st1" points="502.9 65.3 503.1 65.1 503.1 65.1 505.2 62.6 505.4 62.3 505.4 62.3 505.4 62.3 505.2 62.1 503.1 59.5 502.9 59.3 502.9 59.3 502.7 59.5 501.6 58.2 502.7 59.5 500.6 62.1 500.4 62.3 500.6 62.6 502.7 65.1 502.9 65.3 504 66.6 "/>
  <polygon class="st1" points="525.7 65.3 527.8 67.9 525.7 70.4 525.7 70.4 527.8 67.9 525.7 65.3 "/>
  <polygon class="st1" points="509.7 73.7 511.8 76.2 512 76.4 512.7 77.3 512 76.4 512.2 76.2 514.3 73.7 514.5 73.4 514.3 73.2 512.2 70.6 512.2 70.6 512 70.4 511.8 70.6 509.7 68.1 511.8 70.6 509.7 73.2 509.5 73.4 507.4 70.9 507.6 70.6 507.6 70.6 509.7 68.1 509.9 67.9 512 65.3 509.9 67.9 509.7 67.6 509.7 67.6 507.6 65.1 507.4 64.9 507.2 65.1 505.2 62.6 507.2 65.1 505.2 67.6 505.2 67.6 505 67.9 505 67.9 505 67.9 505.2 68.1 507.2 70.6 507.4 70.9 505.4 73.4 507.4 76 509.5 73.4 "/>
  <polygon class="st1" points="507.6 81.8 507.6 81.8 509.7 79.2 509.7 79.2 509.9 79 512 76.4 509.9 79 509.7 78.7 507.6 76.2 507.6 76.2 507.4 76 507.2 76.2 507.2 76.2 505.2 78.7 505 79 505 79 505 79 505.2 79.2 505.2 79.2 507.2 81.8 507.2 81.8 507.4 82 507.4 82 509.5 84.5 507.4 82 "/>
  <polygon class="st1" points="518.8 73.7 516.8 76.2 518.8 78.7 520.9 76.2 "/>
  <polygon class="st1" points="514.5 79 514.5 79 516.6 76.4 516.8 76.2 516.6 76 516.4 76.2 514.3 73.7 516.4 76.2 514.3 78.7 514.1 79 514.1 79 514.1 79 514.3 79.2 512.2 81.8 514.3 84.3 516.4 81.8 514.3 79.2 "/>
  <polygon class="st1" points="525.5 70.6 525.5 70.6 525.5 70.6 525.7 70.9 525.9 70.6 525.7 70.4 "/>
  <path class="st1" d="M226.7 154.5c-2.3 0.2-3.5 0.8-3.5 2.3 0 1.3 1.3 2.2 3.2 2.2 3 0 5.5-1.6 5.5-3.9v-1.2c-0.9 0.2-1.6 0.4-2.6 0.4L226.7 154.5z"/>
  <path class="st1" d="M170.3 45.8c-14.3 0-23.2 7.6-23.2 22.7 0 15.2 8.9 22.8 23.2 22.8 14.3 0 23.2-7.6 23.2-22.8C193.5 53.4 184.6 45.8 170.3 45.8z"/>
  <path class="st1" d="M266.6 148.7c-3.1 0-5.1 1.9-5.1 5.1 0 2.6 1.5 5.1 5.1 5.1 3.6 0 5.1-2.5 5.1-5.1C271.7 150.6 269.6 148.7 266.6 148.7z"/>
  <path class="st1" d="M239.2 148.5c-2.4 0-4.4 1.4-4.8 3.9h9.6C243.6 149.9 241.7 148.5 239.2 148.5z"/>
  <path class="st1" d="M197 148.5c-2.4 0-4.6 1.4-5 3.9h9.8C201.4 149.9 199.4 148.5 197 148.5z"/>
  <path class="st1" d="M146.1 148.5c-3.8 0-5.2 2.7-5.2 5.2 0 2.5 1.4 5.2 5.2 5.2s5.2-2.7 5.2-5.2C151.3 151.2 149.9 148.5 146.1 148.5z"/>
  <path class="st1" d="M31.8 148.5c-2.4 0-4.6 1.4-5 3.9h9.8C36.2 149.9 34.3 148.5 31.8 148.5z"/>
  <path class="st1" d="M54.7 48.2c-14.4 0-22.3 7.1-22.3 20.5 0 13.4 7.9 20.5 22.3 20.5 14.7 0 22.5-8 22.5-20.5C77.2 56.2 69.4 48.2 54.7 48.2z"/>
  <path class="st1" d="M538.5 148.5c-3.8 0-5.2 2.7-5.2 5.2 0 2.5 1.4 5.2 5.2 5.2 3.8 0 5.2-2.7 5.2-5.2C543.7 151.2 542.3 148.5 538.5 148.5z"/>
  <path class="st1" d="M465.5 148.5c-2.4 0-4.6 1.4-5 3.9h9.8C470 149.9 468 148.5 465.5 148.5z"/>
  <path class="st1" d="M320.7 148.5c-3.8 0-5.2 2.7-5.2 5.2 0 2.5 1.4 5.2 5.2 5.2s5.2-2.7 5.2-5.2C326 151.2 324.6 148.5 320.7 148.5z"/>
  <path class="st1" d="M515.2 148.5c-3.8 0-5.2 2.7-5.2 5.2 0 2.5 1.4 5.2 5.2 5.2s5.2-2.7 5.2-5.2C520.4 151.2 519 148.5 515.2 148.5z"/>
  <path class="st1" d="M556 148.7c-3.2 0-5.1 2.1-5.1 4.9 0 2.8 1.9 4.9 5.1 4.9 3.2 0 5.1-2 5.1-4.9C561.1 150.8 559.2 148.7 556 148.7z"/>
  <polygon class="st1" points="500.3 62.2 500.4 62.3 498.3 64.9 500.4 62.3 "/>
  <path class="st1" d="M423.2 148.7c-3.1 0-5.1 1.9-5.1 5.1 0 2.6 1.5 5.1 5.1 5.1 3.6 0 5.1-2.5 5.1-5.1C428.3 150.6 426.3 148.7 423.2 148.7z"/>
  <path class="st1" d="M338.3 148.7c-3.2 0-5.1 2.1-5.1 4.9 0 2.8 1.9 4.9 5.1 4.9 3.2 0 5.1-2 5.1-4.9C343.4 150.8 341.5 148.7 338.3 148.7z"/>
  <path class="st1" d="M406.1 148.5c-2.4 0-4.6 1.4-5 3.9h9.8C410.5 149.9 408.6 148.5 406.1 148.5z"/>
  <polygon class="st1" points="521.3 81.8 521.1 81.5 521.1 81.5 521.1 81.5 520.9 81.8 518.8 79.2 519 79 519.5 79.6 519 79 518.8 78.7 518.6 79 518.6 79 516.6 81.5 516.6 81.5 516.4 81.8 516.6 82 516.6 82 516.8 81.8 518.8 84.3 518.6 84.5 518.6 84.5 518.6 84.5 518.8 84.8 519.7 85.9 518.8 84.8 519 84.5 521.1 82 521.3 81.8 523.4 84.3 525.5 81.8 523.4 79.2 "/>
  <polygon class="st1" points="516.6 87.5 516.8 87.3 516.6 87.1 516.4 87.3 514.3 84.8 514.5 84.5 514.3 84.3 514.1 84.5 514.1 84.5 512 87.1 511.8 87.3 509.7 84.8 509.9 84.5 512 82 512.2 82.2 512 82 512.2 81.8 512 81.5 511.8 81.8 510.7 80.4 511.8 81.8 509.7 84.3 509.5 84.5 509.7 84.8 507.6 87.3 509.7 89.8 511.8 87.3 512 87.5 512.9 88.7 512 87.5 512.2 87.3 514.3 89.8 514.1 90.1 514.1 90.1 514.1 90.1 514.3 90.3 514.5 90.1 516.6 92.6 514.5 90.1 "/>
  <polygon class="st1" points="507.4 53.8 509.5 51.2 507.4 48.7 509.5 51.2 "/>
  <polygon class="st1" points="529.4 71.9 528.2 73.4 530.2 76 528.2 73.4 "/>
  <polygon class="st1" points="498.3 70.9 498.5 70.6 500.6 68.1 500.6 68.1 500.8 67.9 502.9 65.3 500.8 67.9 500.6 67.6 500.6 67.6 498.5 65.1 498.3 64.9 498.1 65.1 498.1 65.1 496 67.6 496 67.6 495.8 67.9 493.8 65.3 495.8 67.9 496 68.1 498.1 70.6 498.3 70.9 496.2 73.4 498.3 76 500.4 73.4 "/>
  <polygon class="st1" points="509.7 51 511.8 48.4 509.7 45.9 511.8 48.4 "/>
  <polygon class="st1" points="505 56.8 505 56.8 503.5 58.5 505 56.8 505.2 57 507.2 59.5 507.2 59.5 507.4 59.8 507.6 59.5 509.7 57 509.7 57 509.9 56.8 509.7 56.5 507.6 54 507.4 53.8 507.2 54 505.2 51.5 507.2 54 505.2 56.5 503.1 54 505.2 56.5 "/>
  <polygon class="st1" points="502.9 76.4 503.1 76.2 503.1 76.2 505.2 73.7 505.4 73.4 505.2 73.2 503.1 70.6 503.1 70.6 502.9 70.4 502.7 70.6 502.4 70.3 502.7 70.6 500.6 73.2 500.4 73.4 500.6 73.7 502.7 76.2 502.9 76.4 504 77.7 "/>
  <polygon class="st1" points="532.5 67.6 532.3 67.9 532.3 67.9 530.2 70.4 528.2 67.9 530.2 65.3 530.4 65.1 532.5 67.6 530.4 65.1 530.2 64.9 530 65.1 528 67.6 527.8 67.9 528 68.1 528.2 67.9 530.2 70.4 530 70.6 530.2 70.9 530.2 70.9 530.4 70.6 531.6 72 530.4 70.6 532.5 68.1 532.7 67.9 "/>
  <polygon class="st1" points="512 87.5 509.9 90.1 509.9 90.1 "/>
  <polygon class="st1" points="527.8 62.3 527.8 62.3 525.7 64.9 525.7 64.9 525.5 65.1 525.5 65.1 525.5 65.1 525.7 65.3 525.9 65.1 525.9 65.1 528 62.6 528.2 62.3 528.2 62.3 528 62.1 "/>
  <polygon class="st1" points="530.2 59.8 532.3 62.3 530.2 59.8 529.3 60.9 "/>
  <polygon class="st1" points="521.1 53.8 519 51.2 519 51.2 518.8 51 519.5 50.1 518.8 51 518.6 51.2 518.6 51.2 516.6 53.8 516.4 54 516.4 54 516.6 54.2 518.6 56.8 517.5 58.2 518.6 56.8 518.8 57 519 56.8 521.1 54.2 521.3 54 523.4 56.5 525.5 54 523.4 51.5 521.3 54 "/>
  <polygon class="st1" points="518.8 84.8 516.8 87.3 518.8 89.8 516.8 87.3 "/>
  <polygon class="st1" points="528 73.7 525.9 76.2 525.7 76 525.5 76.2 523.4 73.7 525.5 76.2 523.4 78.7 523.2 79 523.4 79.2 523.6 79 523.6 79 525.7 76.4 525.9 76.2 "/>
  <polygon class="st1" points="514.1 45.7 514.1 45.7 512 48.2 511.8 48.4 512 48.7 514.1 51.2 514.1 51.2 514.3 51.5 514.5 51.2 516.6 48.7 516.8 48.4 518.8 51 516.8 48.4 516.6 48.2 514.5 45.7 514.3 45.4 514.3 45.4 512.2 42.9 514.3 45.4 "/>
  <polygon class="st1" points="534.8 65.3 532.7 67.9 534.8 70.4 532.7 67.9 "/>
  <path class="logo--shape" d="M108.7 108.8V0.3H77.2v38.2h-0.3c-5.3-7.7-16.1-12.3-30-12.3C17.2 26.2 0 45.1 0 68.4c0 28 18.6 43.7 47.1 43.7 12.8 0 23.9-4.6 30.6-12.8h0.3v9.5H108.7zM54.7 89.2c-14.4 0-22.3-7.1-22.3-20.5 0-13.4 7.9-20.5 22.3-20.5 14.7 0 22.5 8 22.5 20.5C77.2 81.2 69.4 89.2 54.7 89.2z"/>
  <path class="logo--shape" d="M226.8 68.5c0-28.5-20.1-43.6-56.5-43.6 -36.4 0-56.5 15-56.5 43.6 0 28.5 20.1 43.6 56.5 43.6C206.8 112.1 226.8 97.1 226.8 68.5zM170.3 91.3c-14.3 0-23.2-7.6-23.2-22.8 0-15.2 8.9-22.7 23.2-22.7 14.3 0 23.2 7.6 23.2 22.7C193.5 83.7 184.6 91.3 170.3 91.3z"/>
  <polygon class="logo--shape" points="339.8 108.8 340.7 108.8 371.4 108.8 371.4 88 383.4 78.4 406.3 108.8 449.1 108.8 408.4 58.1 445.6 28.3 402.9 28.3 371.4 56.4 371.4 0 339.8 0 339.8 107.7 300 58.1 337.2 28.3 294.5 28.3 263 56.4 263 0 231.4 0 231.4 108.8 263 108.8 263 88 275 78.4 297.9 108.8 "/>
  <path class="logo--shape" d="M13 143.7c3.9 0 6 2.2 6.4 4.8h2.8c-0.5-5.6-5.7-7.2-9.4-7.2 -6.4 0-9.8 4.3-9.8 9.8 0 7.3 5.1 9.9 9.9 9.9 5.4 0 8.9-3.5 9.4-7.7h-2.8c-0.8 3.7-3.3 5.2-6.6 5.2 -5.2 0-7.1-3.7-7.1-7.2C5.7 146.3 8.6 143.7 13 143.7z"/>
  <path class="logo--shape" d="M32 146.3c-5.4 0-8 3.4-8 7.4s2.6 7.4 8 7.4c2.7 0 5.8-1.3 7.1-4.7h-2.8c-0.9 1.9-2.9 2.4-4.4 2.4 -2.3 0-4.9-1.5-5.1-4.4h12.7v-0.3C39.4 148.4 35.6 146.3 32 146.3zM26.8 152.4c0.4-2.5 2.6-3.9 5-3.9 2.5 0 4.4 1.4 4.8 3.9H26.8z"/>
  <path class="logo--shape" d="M49.8 146.3c-2 0-4.2 0.6-5.4 2.6h-0.1v-2.1h-2.6v13.8h2.6v-7.9c0-2.7 2.1-4.1 4.5-4.1 2.8 0 4.1 1.2 4.1 3.2v8.9h2.6v-9.4C55.6 147.7 53.2 146.3 49.8 146.3z"/>
  <path class="logo--shape" d="M62.4 142.5h-2.6v4.2h-2.8v2.1h2.8v8.9c0 2 1.1 3.3 3.6 3.3 1.1 0 2.1 0 2.9-0.2v-2.2c-0.6 0.1-1.2 0.2-1.8 0.2 -1.3 0-2.1-0.4-2.1-1.5v-8.5h3.9v-2.1h-3.9V142.5z"/>
  <path class="logo--shape" d="M70.6 149.3L70.6 149.3l-0.1-2.5H68v13.8h2.6v-7c0-3 1.8-4.5 4.4-4.5 0.7 0 1.2 0.1 1.9 0.3v-2.8c-0.5-0.1-0.8-0.2-1.5-0.2C73.6 146.3 71.9 147.1 70.6 149.3z"/>
  <path class="logo--shape" d="M89.6 154.7c0 2.7-2.1 4.1-4.5 4.1 -2.8 0-4.1-1.2-4.1-3.2v-8.9h-2.6v9.4c0 3.4 2.5 4.9 5.8 4.9 2 0 4.2-0.6 5.4-2.6h0.1v2.1h2.6v-13.8h-2.6V154.7z"/>
  <path class="logo--shape" d="M113.6 146.3c-2.6 0-4.3 1-5.6 2.6 -1.1-1.8-2.9-2.6-4.7-2.6 -2 0-4.2 0.6-5.4 2.6h-0.1v-2.1h-2.6v13.8h2.6v-7.9c0-2.7 2.1-4.1 4.5-4.1 1.7 0 3.3 0.8 3.3 3.3v8.8h2.6v-8.3c0-2.6 2.1-3.7 4.5-3.7 1.7 0 3.3 0.8 3.3 3.3v8.8h2.6v-9.4C118.9 146.9 115 146.3 113.6 146.3z"/>
  <path class="logo--shape" d="M131.2 144.7v2.1h-2.8v2.1h2.8v11.7h2.6v-11.7h3.9v-2.1h-3.9v-1.9c0-1.1 0.7-1.3 2.4-1.3 0.5 0 1 0 1.5 0.1v-2.1c-0.8-0.1-1.5-0.2-2.3-0.2C132.8 141.3 131.2 142.1 131.2 144.7z"/>
  <path class="logo--shape" d="M146.1 146.3c-5.4 0-8 3.4-8 7.4s2.6 7.4 8 7.4c5.4 0 8-3.4 8-7.4S151.5 146.3 146.1 146.3zM146.1 158.8c-3.8 0-5.2-2.7-5.2-5.2 0-2.5 1.4-5.2 5.2-5.2s5.2 2.7 5.2 5.2C151.3 156.2 149.9 158.8 146.1 158.8z"/>
  <path class="logo--shape" d="M159.1 149.3L159.1 149.3l-0.1-2.5h-2.6v13.8h2.6v-7c0-3 1.8-4.5 4.4-4.5 0.7 0 1.2 0.1 1.9 0.3v-2.8c-0.5-0.1-0.8-0.2-1.5-0.2C162.1 146.3 160.3 147.1 159.1 149.3z"/>
  <polygon class="logo--shape" points="181.4 157.7 176.7 146.8 173.7 146.8 179.9 160.5 182.8 160.5 189.1 146.8 186.1 146.8 "/>
  <path class="logo--shape" d="M197.1 146.3c-5.4 0-8 3.4-8 7.4s2.6 7.4 8 7.4c2.7 0 5.8-1.3 7.1-4.7h-2.8c-0.9 1.9-2.9 2.4-4.4 2.4 -2.3 0-4.9-1.5-5.1-4.4h12.7v-0.3C204.6 148.4 200.7 146.3 197.1 146.3zM192 152.4c0.4-2.5 2.6-3.9 5-3.9 2.5 0 4.4 1.4 4.8 3.9H192z"/>
  <rect x="206.9" y="141.6" class="logo--shape" width="2.6" height="19"/>
  <path class="logo--shape" d="M213.6 144.7v2.1h-2.8v2.1h2.8v11.7h2.6v-11.7h3.9v-2.1h-3.9v-1.9c0-1.1 0.7-1.3 2.4-1.3 0.5 0 1 0 1.5 0.1v-2.1c-0.8-0.1-1.5-0.2-2.3-0.2C215.1 141.3 213.6 142.1 213.6 144.7z"/>
  <path class="logo--shape" d="M239.4 146.3c-2.1 0-4.1 0.7-5.4 2.3 -1.3-1.8-3.4-2.3-5.9-2.3 -4.1 0-6.5 1.3-6.8 4.8h2.5c0.1-2.1 2-2.7 4.3-2.7 2.1 0 4 0.4 4 2.3 0 1.2-0.9 1.5-2.4 1.7l-3.2 0.3c-4.3 0.4-5.8 1.7-5.8 4.3 0 1.8 1 4.2 5.6 4.2 4.1 0 6-1.9 6.7-3 1.6 2.6 4.1 3 6.5 3 2.7 0 5.8-1.3 7.1-4.7h-2.8c-0.9 1.9-2.9 2.4-4.4 2.4 -3.1 0-4.5-1.5-4.8-4.4h12.4v-0.3C246.8 149.5 244.1 146.3 239.4 146.3zM231.9 155.1c0 2.3-2.5 3.9-5.5 3.9 -1.9 0-3.2-0.9-3.2-2.2 0-1.4 1.2-2.1 3.5-2.3l2.6-0.2c1-0.1 1.7-0.2 2.6-0.4V155.1zM234.4 152.4c0.4-2.5 2.4-3.9 4.8-3.9 2.5 0 4.4 1.4 4.8 3.9H234.4z"/>
  <path class="logo--shape" d="M251.9 149.3L251.9 149.3l-0.1-2.5h-2.6v13.8h2.6v-7c0-3 1.8-4.5 4.4-4.5 0.7 0 1.2 0.1 1.9 0.3v-2.8c-0.5-0.1-0.8-0.2-1.5-0.2C254.9 146.3 253.1 147.1 251.9 149.3z"/>
  <path class="logo--shape" d="M271.5 148.7L271.5 148.7c-1.1-1.5-3.2-2.2-5.3-2.2 -4.2 0-7.5 2.7-7.5 7.3s3.3 7.3 7.5 7.3c2 0 4.2-0.8 5.2-2.2h0.1v1.8h2.6v-19h-2.6V148.7zM266.6 158.8c-3.6 0-5.1-2.5-5.1-5.1 0-3.2 2-5.1 5.1-5.1 3.1 0 5.1 1.9 5.1 5.1C271.7 156.3 270.1 158.8 266.6 158.8z"/>
  <path class="logo--shape" d="M285.5 152.7l-3.7-0.5c-1.9-0.3-2.3-0.8-2.3-1.7 0-1.6 1.9-2.1 3.6-2.1 2.7 0 4.1 1.2 4.1 2.6h2.6c-0.2-2.7-2.2-4.6-6.7-4.6 -3.9 0-6.3 1.7-6.3 4.4 0 2.1 1.8 3.4 3.7 3.7l4.3 0.6c2.1 0.3 2.6 0.9 2.6 1.8 0 1-0.8 2.2-4.2 2.2 -3.3 0-4.3-1.5-4.3-2.8h-2.6c0.3 4 3.9 4.8 7.1 4.8 4.2 0 6.9-1.5 6.9-4.7C290.3 154.4 289 153.1 285.5 152.7z"/>
  <rect x="292.5" y="151.9" class="logo--shape" width="9.2" height="2.7"/>
  <path class="logo--shape" d="M320.7 146.3c-5.4 0-8 3.4-8 7.4s2.6 7.4 8 7.4c5.4 0 8-3.4 8-7.4S326.1 146.3 320.7 146.3zM320.7 158.8c-3.8 0-5.2-2.7-5.2-5.2 0-2.5 1.4-5.2 5.2-5.2s5.2 2.7 5.2 5.2C326 156.2 324.6 158.8 320.7 158.8z"/>
  <path class="logo--shape" d="M343.4 148.8L343.4 148.8c-1.1-1.6-3.2-2.3-5.4-2.3 -3.7 0-7.5 2-7.5 7.1 0 5.1 3.9 7.1 7.6 7.1 1.8 0 3.9-0.4 5.3-2.6h0.1v2c0 2.3-1.4 4.2-5.1 4.2 -2.5 0-4.1-0.4-4.6-2.2H331c0.6 3.8 4 4.3 6.9 4.3 5.7 0 8-2 8-6.9v-12.6h-2.6V148.8zM338.3 158.5c-3.2 0-5.1-2-5.1-4.9 0-2.8 1.9-4.9 5.1-4.9 3.2 0 5.1 2.1 5.1 4.9C343.4 156.4 341.5 158.5 338.3 158.5z"/>
  <path class="logo--shape" d="M358.2 144.7v2.1h-2.8v2.1h2.8v11.7h2.6v-11.7h3.9v-2.1h-3.9v-1.9c0-1.1 0.7-1.3 2.4-1.3 0.5 0 1 0 1.5 0.1v-2.1c-0.8-0.1-1.5-0.2-2.3-0.2C359.7 141.3 358.2 142.1 358.2 144.7z"/>
  <path class="logo--shape" d="M368.7 149.3L368.7 149.3l-0.1-2.5H366v13.8h2.6v-7c0-3 1.8-4.5 4.4-4.5 0.7 0 1.2 0.1 1.9 0.3v-2.8c-0.5-0.1-0.8-0.2-1.5-0.2C371.7 146.3 369.9 147.1 368.7 149.3z"/>
  <rect x="376.5" y="146.8" class="logo--shape" width="2.6" height="13.8"/>
  <rect x="376.5" y="141.6" class="logo--shape" width="2.6" height="2.9"/>
  <path class="logo--shape" d="M390.1 146.3c-2 0-4.2 0.6-5.4 2.6h-0.1v-7.2h-2.6v19h2.6v-7.9c0-2.7 2.1-4.1 4.5-4.1 2.8 0 4.1 1.2 4.1 3.2v8.9h2.6v-9.4C395.9 147.7 393.5 146.3 390.1 146.3z"/>
  <path class="logo--shape" d="M406.2 146.3c-5.4 0-8 3.4-8 7.4s2.6 7.4 8 7.4c2.7 0 5.8-1.3 7.1-4.7h-2.8c-0.9 1.9-2.9 2.4-4.4 2.4 -2.3 0-4.9-1.5-5.1-4.4h12.7v-0.3C413.7 148.4 409.9 146.3 406.2 146.3zM401.1 152.4c0.4-2.5 2.6-3.9 5-3.9 2.5 0 4.4 1.4 4.8 3.9H401.1z"/>
  <path class="logo--shape" d="M428.2 148.7L428.2 148.7c-1.1-1.5-3.2-2.2-5.3-2.2 -4.2 0-7.5 2.7-7.5 7.3s3.3 7.3 7.5 7.3c2 0 4.2-0.8 5.2-2.2h0.1v1.8h2.6v-19h-2.6V148.7zM423.2 158.8c-3.6 0-5.1-2.5-5.1-5.1 0-3.2 2-5.1 5.1-5.1 3.1 0 5.1 1.9 5.1 5.1C428.3 156.3 426.8 158.8 423.2 158.8z"/>
  <path class="logo--shape" d="M442.2 152.7l-3.7-0.5c-1.9-0.3-2.3-0.8-2.3-1.7 0-1.6 1.9-2.1 3.6-2.1 2.7 0 4.1 1.2 4.1 2.6h2.6c-0.2-2.7-2.2-4.6-6.7-4.6 -3.9 0-6.3 1.7-6.3 4.4 0 2.1 1.8 3.4 3.7 3.7l4.3 0.6c2.1 0.3 2.6 0.9 2.6 1.8 0 1-0.8 2.2-4.2 2.2 -3.3 0-4.3-1.5-4.3-2.8H433c0.3 4 3.9 4.8 7.1 4.8 4.2 0 6.9-1.5 6.9-4.7C447 154.4 445.6 153.1 442.2 152.7z"/>
  <path class="logo--shape" d="M453.1 142.5h-2.6v4.2h-2.8v2.1h2.8v8.9c0 2 1.1 3.3 3.6 3.3 1.1 0 2.1 0 2.9-0.2v-2.2c-0.6 0.1-1.2 0.2-1.8 0.2 -1.3 0-2.1-0.4-2.1-1.5v-8.5h3.9v-2.1h-3.9V142.5z"/>
  <path class="logo--shape" d="M465.7 146.3c-5.4 0-8 3.4-8 7.4s2.6 7.4 8 7.4c2.7 0 5.8-1.3 7.1-4.7H470c-0.9 1.9-2.9 2.4-4.4 2.4 -2.3 0-4.9-1.5-5.1-4.4h12.7v-0.3C473.2 148.4 469.3 146.3 465.7 146.3zM460.5 152.4c0.4-2.5 2.6-3.9 5-3.9 2.5 0 4.4 1.4 4.8 3.9H460.5z"/>
  <polygon class="logo--shape" points="489.2 146.8 485.2 146.8 478.2 152.7 478.2 141.6 475.6 141.6 475.6 160.5 478.2 160.5 478.2 155.6 480.6 153.7 486.1 160.5 489.7 160.5 482.7 151.9 "/>
  <path class="logo--shape" d="M499.1 146.3c-2 0-4.2 0.6-5.4 2.6h-0.1v-2.1H491v13.8h2.6v-7.9c0-2.7 2.1-4.1 4.5-4.1 2.8 0 4.1 1.2 4.1 3.2v8.9h2.6v-9.4C504.9 147.7 502.4 146.3 499.1 146.3z"/>
  <path class="logo--shape" d="M515.2 146.3c-5.4 0-8 3.4-8 7.4s2.6 7.4 8 7.4c5.4 0 8-3.4 8-7.4S520.5 146.3 515.2 146.3zM515.2 158.8c-3.8 0-5.2-2.7-5.2-5.2 0-2.5 1.4-5.2 5.2-5.2s5.2 2.7 5.2 5.2C520.4 156.2 519 158.8 515.2 158.8z"/>
  <rect x="525.5" y="141.6" class="logo--shape" width="2.6" height="19"/>
  <path class="logo--shape" d="M538.5 146.3c-5.4 0-8 3.4-8 7.4s2.6 7.4 8 7.4c5.4 0 8-3.4 8-7.4S543.8 146.3 538.5 146.3zM538.5 158.8c-3.8 0-5.2-2.7-5.2-5.2 0-2.5 1.4-5.2 5.2-5.2 3.8 0 5.2 2.7 5.2 5.2C543.7 156.2 542.3 158.8 538.5 158.8z"/>
  <path class="logo--shape" d="M561.1 148.8L561.1 148.8c-1.1-1.6-3.2-2.3-5.4-2.3 -3.7 0-7.5 2-7.5 7.1 0 5.1 3.9 7.1 7.6 7.1 1.8 0 3.9-0.4 5.3-2.6h0.1v2c0 2.3-1.4 4.2-5.1 4.2 -2.5 0-4.1-0.4-4.6-2.2h-2.6c0.6 3.8 4 4.3 6.9 4.3 5.7 0 8-2 8-6.9v-12.6h-2.6V148.8zM556 158.5c-3.2 0-5.1-2-5.1-4.9 0-2.8 1.9-4.9 5.1-4.9 3.2 0 5.1 2.1 5.1 4.9C561.1 156.4 559.2 158.5 556 158.5z"/>
  <rect x="566.6" y="146.8" class="logo--shape" width="2.6" height="13.8"/>
  <rect x="566.6" y="141.6" class="logo--shape" width="2.6" height="2.9"/>
  <polygon class="logo--shape" points="496 67.6 496 67.6 498.1 65.1 498.1 65.1 498.3 64.9 500.4 62.3 500.3 62.2 500.4 62.3 498.3 64.9 498.5 65.1 500.6 67.6 500.6 67.6 500.8 67.9 502.9 65.3 502.7 65.1 500.6 62.6 500.4 62.3 500.6 62.1 502.7 59.5 501.6 58.2 502.7 59.5 502.9 59.3 502.9 59.3 503.1 59.5 505.2 62.1 505.4 62.3 505.4 62.3 505.4 62.3 505.2 62.6 507.2 65.1 507.4 64.9 509.5 62.3 507.4 59.8 507.2 59.5 507.2 59.5 505.2 57 505 56.8 503.5 58.5 505 56.8 505 56.8 505.2 56.5 503.1 54 502.9 54.2 503.1 54.5 502.9 54.2 481.6 28.3 477.4 28.3 500.8 56.8 500.8 56.8 500.8 56.8 500.6 57 500.6 57 498.5 59.5 498.3 59.8 498.3 59.8 498.3 59.8 472.4 28.3 468.3 28.3 496.2 62.3 496.2 62.3 496.2 62.3 496 62.6 494 65.1 493.8 65.3 495.8 67.9 "/>
  <polygon class="logo--shape" points="507.4 53.8 509.5 51.2 507.4 48.7 490.7 28.3 486.5 28.3 505.4 51.2 505.4 51.2 505.4 51.2 505.2 51.5 507.2 54 "/>
  <polygon class="logo--shape" points="546.6 28.3 542.4 28.3 523.4 51.5 525.5 54 "/>
  <polygon class="logo--shape" points="516.6 59.8 518.6 62.3 518.8 62.1 516.8 59.5 "/>
  <polygon class="logo--shape" points="514.3 73.7 516.4 76.2 516.6 76 514.5 73.4 "/>
  <polygon class="logo--shape" points="521.1 65.3 523.2 67.9 523.4 67.6 521.3 65.1 "/>
  <polygon class="logo--shape" points="512 82 512.2 82.2 512 82 509.9 84.5 509.7 84.8 511.8 87.3 512 87.1 514.1 84.5 514.1 84.5 514.3 84.3 512.2 81.8 "/>
  <polygon class="logo--shape" points="560.3 28.3 556.1 28.3 530.2 59.8 532.3 62.3 "/>
  <polygon class="logo--shape" points="530.2 70.4 528.2 67.9 528 68.1 530 70.6 "/>
  <polygon class="logo--shape" points="530.2 65.3 528.2 67.9 530.2 70.4 532.3 67.9 532.3 67.9 532.5 67.6 530.4 65.1 "/>
  <polygon class="logo--shape" points="521.1 76.4 523.2 79 523.1 79.1 523.2 79 521.1 76.4 520.9 76.2 518.8 78.7 519 79 519.5 79.6 519 79 518.8 79.2 520.9 81.8 521.1 81.5 521.1 81.5 521.1 81.5 521.3 81.8 523.4 79.2 523.2 79 523.4 78.7 525.5 76.2 523.4 73.7 521.3 76.2 "/>
  <polygon class="logo--shape" points="523.6 79 523.4 79.2 525.5 81.8 525.7 81.5 525.7 81.5 527.8 79 525.7 76.4 523.6 79 "/>
  <polygon class="logo--shape" points="514.3 90.3 514.1 90.1 514.1 90.1 514.1 90.1 514.3 89.8 512.2 87.3 512 87.5 512.9 88.7 512 87.5 509.9 90.1 509.9 90.1 494.5 108.8 498.7 108.8 512 92.6 512.2 92.9 514.3 95.4 515.2 94.2 514.3 95.4 525.3 108.8 529.5 108.8 516.4 92.9 516.4 92.9 516.6 92.6 514.5 90.1 "/>
  <polygon class="logo--shape" points="528 73.7 525.9 76.2 525.7 76.4 527.8 79 528 78.7 552.7 108.8 556.8 108.8 530 76.2 530.2 76 528.2 73.4 "/>
  <polygon class="logo--shape" points="521.1 82 519 84.5 518.8 84.8 519.7 85.9 518.8 84.8 516.8 87.3 518.8 89.8 534.4 108.8 538.6 108.8 520.9 87.3 520.9 87.3 520.9 87.3 521.1 87.1 521.1 87.1 523.2 84.5 523.2 84.5 523.4 84.3 521.3 81.8 "/>
  <polygon class="logo--shape" points="516.6 87.5 514.5 90.1 516.6 92.6 518.6 90.1 518.6 90.1 518.8 89.8 516.8 87.3 "/>
  <polygon class="logo--shape" points="532.5 68.1 534.6 70.6 534.8 70.4 532.7 67.9 "/>
  <path class="logo--shape" d="M523.6 56.8l2.1 2.5 0 0 0.2 0.2 -0.2 0.2 0.9 1.1 -0.9-1.1 -2.1 2.5 -0.2 0.2 -0.2-0.2 -2.1 2.5 0.2 0.2 2.1 2.5 0.2 0.2 -0.2 0.2 -2.1 2.5 1.2 1.4 -1.2-1.4 -0.2 0.2 -2.1 2.5 -0.2 0.2 2.1 2.5 0.2-0.2 2.1-2.5 0 0 0.2-0.2 0 0 0.2 0.2 -0.2 0.2 2.1 2.5 0.2-0.2 2.1-2.5 -2.1-2.5 0 0 2.1 2.5 0.2-0.2 -2.1-2.5 -0.2 0.2 -0.2-0.2 0 0 0 0 0.2-0.2 0.2 0.2 2.1-2.5 -0.2-0.2 -2.1 2.5h0l2.1-2.5 -2.1-2.5h0l2.1 2.5 0.2-0.2 2.1-2.5 0.2-0.2 2.1-2.5 -2.1-2.5 -0.9 1.1 0.9-1.1 -0.2-0.2 0 0 25.7-31.3h-4.2L528 57l-0.2-0.2 0 0 -2.1-2.5 -0.2-0.2 -2.1 2.5L523.6 56.8zM528.2 62.3l-0.2 0.2 -2.1 2.5 0 0 -0.2 0.2 -0.2-0.2 0 0 0 0 0.2-0.2 0 0 2.1-2.5 0 0 0.2-0.2L528.2 62.3 528.2 62.3z"/>
  <polygon class="logo--shape" points="500.2 28.3 512.2 42.9 514.3 40.4 504.4 28.3 "/>
  <polygon class="logo--shape" points="514.3 45.4 514.5 45.7 516.6 48.2 516.8 48.4 518.8 51 519.5 50.1 518.8 51 519 51.2 519 51.2 521.1 53.8 521.3 54 523.4 51.5 523.2 51.2 523.2 51.2 521.1 48.7 520.9 48.4 520.9 48.4 520.9 48.4 537.5 28.3 533.3 28.3 518.8 45.9 518.6 45.7 518.6 45.7 516.6 43.1 516.4 42.9 516.4 42.9 528.4 28.3 524.2 28.3 514.3 40.4 512.2 42.9 514.3 45.4 "/>
  <polygon class="logo--shape" points="534.8 65.3 534.6 65.1 532.5 67.6 532.7 67.9 "/>
  <polygon class="logo--shape" points="532.5 67.6 534.6 65.1 564.8 28.3 560.7 28.3 532.5 62.6 532.3 62.3 530.2 64.9 530.4 65.1 "/>
  <polygon class="logo--shape" points="531.6 72 530.4 70.6 530.2 70.9 530.2 70.9 530 70.6 528 73.2 528.2 73.4 529.4 71.9 528.2 73.4 530.2 76 557.2 108.8 561.4 108.8 532.3 73.4 532.3 73.4 532.3 73.4 532.5 73.2 532.5 73.2 534.6 70.6 532.5 68.1 530.4 70.6 "/>
  <polygon class="logo--shape" points="509.7 51 509.9 51.2 509.9 51.2 512 53.8 513.1 52.4 512 53.8 512.2 54 512.2 54 512.2 54 512 54.2 514.1 56.8 514.3 56.5 514.6 56.1 514.3 56.5 514.5 56.8 516.6 59.3 516.6 59.3 516.8 59.5 518.8 62.1 519.8 60.9 518.8 62.1 519 62.3 521.1 59.8 520.9 59.5 520.9 59.5 520.9 59.5 521.1 59.3 521.1 59.3 523.2 56.8 523.4 56.5 521.3 54 521.1 54.2 519 56.8 518.8 57 518.6 56.8 517.5 58.2 518.6 56.8 516.6 54.2 516.4 54 516.4 54 516.6 53.8 518.6 51.2 518.6 51.2 518.8 51 516.8 48.4 516.6 48.7 514.5 51.2 514.3 51.5 514.1 51.2 514.1 51.2 512 48.7 511.8 48.4 512 48.2 514.1 45.7 514.1 45.7 514.3 45.4 512.2 42.9 512 43.1 512.3 43.5 512 43.1 509.9 45.7 509.9 45.7 509.7 45.9 511.8 48.4 "/>
  <polygon class="logo--shape" points="523.2 62.3 521.1 59.8 519 62.3 521.1 64.9 "/>
  <polygon class="logo--shape" points="521.1 70.4 521.3 70.6 523.4 68.1 523.2 67.9 "/>
  <polygon class="logo--shape" points="511.8 54 509.7 56.5 509.9 56.8 512 54.2 "/>
  <polygon class="logo--shape" points="507.4 53.8 507.6 54 509.7 56.5 511.8 54 509.7 51.5 509.5 51.2 509.7 51 511.8 48.4 509.7 45.9 495.2 28.3 491.1 28.3 507.6 48.4 507.4 48.7 509.5 51.2 "/>
  <polygon class="logo--shape" points="513.3 58.2 512.2 59.5 514.3 62.1 514.5 62.3 516.6 59.8 516.4 59.5 516.4 59.5 514.3 57 514.3 57 514.1 56.8 512 59.3 512.2 59.5 "/>
  <polygon class="logo--shape" points="525.7 76 525.9 76.2 528 73.7 527.8 73.4 "/>
  <polygon class="logo--shape" points="518.8 67.6 519 67.9 521.1 70.4 523.2 67.9 521.1 65.3 520.9 65.1 520.9 65.1 518.8 62.6 518.6 62.3 516.6 64.9 516.8 65.1 "/>
  <polygon class="logo--shape" points="507.2 54 505.2 51.5 503.1 54 505.2 56.5 "/>
  <polygon class="logo--shape" points="518.8 73.7 518.6 73.4 518.8 73.2 518.8 73.2 520.9 70.6 521.1 70.4 519 67.9 518.8 68.1 516.8 70.6 517.9 72.1 516.8 70.6 516.6 70.9 514.5 73.4 516.6 76 516.8 76.2 516.6 76.4 514.5 79 514.5 79 514.3 79.2 516.4 81.8 516.6 81.5 516.6 81.5 518.6 79 518.6 79 518.8 78.7 516.8 76.2 "/>
  <polygon class="logo--shape" points="514.3 73.2 514.5 73.4 516.6 70.9 516.4 70.6 "/>
  <polygon class="logo--shape" points="509.7 67.6 509.7 67.6 509.9 67.9 512 65.3 511.8 65.1 509.7 62.6 509.5 62.3 509.7 62.1 511.8 59.5 510.7 58.2 511.8 59.5 512 59.3 509.9 56.8 509.7 57 509.7 57 507.6 59.5 507.4 59.8 509.5 62.3 507.4 64.9 507.6 65.1 "/>
  <polygon class="logo--shape" points="514.3 68.1 514.3 68.1 514.1 67.9 514.1 67.9 514.1 67.9 514.3 67.6 516.4 65.1 516.4 65.1 516.6 64.9 514.5 62.3 514.3 62.6 512.2 65.1 512 65.3 512.7 66.2 512 65.3 509.9 67.9 509.7 68.1 511.8 70.6 512 70.4 512.2 70.6 512.2 70.6 514.3 73.2 516.4 70.6 "/>
  <polygon class="logo--shape" points="507.6 70.6 507.4 70.9 509.5 73.4 509.7 73.2 511.8 70.6 509.7 68.1 507.6 70.6 "/>
  <polygon class="logo--shape" points="514.1 79 514.1 79 514.1 79 514.3 78.7 516.4 76.2 514.3 73.7 512.2 76.2 512 76.4 512.7 77.3 512 76.4 509.9 79 509.7 79.2 509.7 79.2 507.6 81.8 507.6 81.8 507.4 82 509.5 84.5 509.7 84.3 511.8 81.8 510.7 80.4 511.8 81.8 512 81.5 512.2 81.8 514.3 79.2 "/>
  <polygon class="logo--shape" points="514.5 84.5 514.3 84.8 516.4 87.3 516.6 87.1 516.8 87.3 518.8 84.8 518.6 84.5 518.6 84.5 518.6 84.5 518.8 84.3 516.8 81.8 516.6 82 516.6 82 516.4 81.8 514.3 84.3 "/>
  <polygon class="logo--shape" points="507.2 70.6 505.2 68.1 505 67.9 505 67.9 505 67.9 505.2 67.6 505.2 67.6 507.2 65.1 505.2 62.6 503.1 65.1 503.1 65.1 502.9 65.3 504 66.6 502.9 65.3 500.8 67.9 500.6 68.1 500.6 68.1 498.5 70.6 498.3 70.9 500.4 73.4 500.6 73.2 502.7 70.6 502.4 70.3 502.7 70.6 502.9 70.4 503.1 70.6 503.1 70.6 505.2 73.2 505.4 73.4 507.4 70.9 "/>
  <polygon class="logo--shape" points="507.6 76.2 509.7 78.7 509.9 79 512 76.4 511.8 76.2 509.7 73.7 509.5 73.4 507.4 76 507.6 76.2 "/>
  <polygon class="logo--shape" points="509.7 84.8 509.5 84.5 507.4 82 507.4 82 507.2 81.8 507.2 81.8 505.2 79.2 505.2 79.2 505 79 505 79 505 79 505.2 78.7 507.2 76.2 507.2 76.2 507.4 76 505.4 73.4 505.2 73.7 503.1 76.2 503.1 76.2 502.9 76.4 504 77.7 502.9 76.4 500.8 79 500.8 79 476.3 108.8 480.4 108.8 502.9 81.5 502.9 81.5 503.1 81.8 505.2 84.3 505.4 84.5 485.4 108.8 489.6 108.8 507.4 87.1 507.6 87.3 490 108.8 494.1 108.8 509.7 89.8 507.6 87.3 "/>
  <polygon class="logo--shape" points="511.8 87.3 509.7 89.8 509.9 90.1 512 87.5 "/>
  <polygon class="logo--shape" points="498.1 70.6 496 68.1 495.8 67.9 493.8 65.3 463.3 28.3 459.2 28.3 491.7 67.9 491.7 67.9 458 108.8 462.2 108.8 493.8 70.4 493.8 70.4 493.8 70.4 494 70.6 496 73.2 496.2 73.4 498.3 70.9 "/>
  <polygon class="logo--shape" points="500.6 73.7 500.4 73.4 498.3 76 498.5 76.2 498.5 76.2 500.6 78.7 500.8 79 502.9 76.4 502.7 76.2 "/>
  <polygon class="logo--shape" points="467.2 108.8 471.3 108.8 498.3 76 496.2 73.4 "/>
  <polygon class="logo--shape" points="499.1 108.8 503.2 108.8 514.3 95.4 512.2 92.9 "/>
  <polygon class="logo--shape" points="536.9 67.9 536.9 67.9 536.9 67.9 569.4 28.3 565.2 28.3 534.8 65.3 532.7 67.9 534.8 70.4 566.4 108.8 570.5 108.8 "/>
  <polygon class="logo--shape" points="543.6 108.8 547.7 108.8 525.5 81.8 523.4 84.3 "/>
</svg>
